<svg enable-background="new 0 0 128 128" viewBox="0 0 128 128" xmlns="https://www.w3.org/2000/svg"><path d="m64 64 64 32-64 32-64-32z" fill="#9c3"/><path d="m64 64 64 32-64 32-64-32z" fill="#9c3"/><ellipse cx="62.5" cy="77" opacity=".3" rx="7.5" ry="4"/><path d="m61 50v27c0 .6.7 1 1.5 1s1.5-.4 1.5-1v-27z" fill="#825012"/><circle cx="55.5" cy="45.5" fill="#539b00" r="6.5"/><circle cx="60" cy="37" fill="#539b00" r="9"/><path d="m63 65.4c2.6 0 3-.9 3-3.4v-8h1v10c0 1.7-1.3 3-3 3h-1z" fill="#825012"/><path d="m63 64.8c-1.7 0-3-.4-3-2.1v-9.7h-1v10c0 1.7 1.3 3 3 3h1z" fill="#825012"/><path d="m61 43.8c-1.7 0-3-.4-3-2.1v-2.7h-1v3c0 1.7 1.3 3 3 3h1z" fill="#825012"/><circle cx="67.5" cy="52.5" fill="#539b00" r="7.5"/><circle cx="72" cy="49" fill="#539b00" r="6"/><path d="m67 51.8c1.7 0 3-.4 3-2.1v-2.7h1v3c0 1.7-1.3 3-3 3h-1z" fill="#825012"/><path d="m60 36.4h1v9.6h-1z" fill="#825012"/><circle cx="69" cy="39" fill="#539b00" r="8"/><circle cx="64" cy="30" fill="#539b00" r="8"/><path d="m64.5 38c2.2 0 4.1 1.3 4.9 3.1.3-.1.7-.1 1.1-.1 1.8 0 3.4.9 4.4 2.2-.4-1.8-2-3.2-3.9-3.2h-.1c-.5-2.3-2.5-4-4.9-4-2 0-3.7 1.2-4.5 2.9.8-.6 1.9-.9 3-.9z" fill="#fff" opacity=".2"/><circle cx="55" cy="37.4" fill="#539b00" r="3.6"/><path d="m55 37.5c0-2.5 1.7-4.6 4-5.3.2-2.9 2.5-5.2 5.5-5.2 1.7 0 3.3.8 4.3 2.1-.6-2.4-2.8-4.1-5.3-4.1-2.9 0-5.3 2.2-5.5 5.1-2.3.5-4 2.5-4 4.9 0 1.1.4 2.2 1 3 0-.2 0-.3 0-.5z" fill="#fff" opacity=".2"/><circle cx="60.3" cy="52.8" fill="#539b00" r="9.3"/><circle cx="72.3" cy="46.8" fill="#539b00" r="3.3"/><path d="m78 49c0-.4 0-.8-.1-1.2-.6 3.8-3.9 6.7-7.9 6.7-.1 0-.3 0-.4 0 .7.3 1.6.5 2.4.5.7 0 1.3-.1 1.9-.3-1.4 1.4-3.3 2.3-5.4 2.3-1 0-2-.2-2.9-.6-1.6 1.6-3.9 2.6-6.3 2.6-3.5 0-6.6-2-8.1-4.8.7 4.4 4.5 7.8 9.1 7.8 2.2 0 4.3-.8 5.9-2.1.4.1.8.1 1.3.1 3.5 0 6.5-2.4 7.3-5.7 1.9-1 3.2-3 3.2-5.3z" opacity=".3"/><path d="m57.5 48c.8 0 1.5.1 2.2.4.9-1.4 2.5-2.4 4.3-2.4 1 0 1.9.3 2.7.8-.7-1.7-2.3-2.8-4.2-2.8-1.6 0-3 .8-3.8 2-.2 0-.5 0-.7 0-2.9 0-5.4 2.1-5.9 4.9 1.2-1.8 3.2-2.9 5.4-2.9z" fill="#fff" opacity=".2"/><path d="m53 48.5c-1.9-.8-3.4-2.4-3.9-4.5-.1.5-.2 1-.2 1.5 0 2.4 1.3 4.4 3.2 5.6.2-.9.5-1.8.9-2.6z" opacity=".3"/><ellipse cx="35.5" cy="87" opacity=".3" rx="7.5" ry="4"/><path d="m37 63v24c0 .6-.7 1-1.5 1s-1.5-.4-1.5-1v-24z" fill="#825012"/><circle cx="44.5" cy="61.5" fill="#539b00" r="6.5"/><circle cx="41" cy="53" fill="#539b00" r="9"/><path d="m35 75.4c-2.6 0-3-.9-3-3.4v-8h-1v10c0 1.7 1.3 3 3 3h1z" fill="#825012"/><path d="m36 76.8c1.7 0 3-.4 3-2.1v-9.7h1v10c0 1.7-1.3 3-3 3h-1z" fill="#825012"/><path d="m32 73.8c-1.7 0-2-1.3-2-2.1v-9.7h-1v10c0 1.7 1.3 3 3 3z" fill="#825012"/><circle cx="31" cy="63" fill="#539b00" r="9"/><circle cx="26" cy="59" fill="#539b00" r="6"/><path d="m31 62.8c-1.7 0-3-.4-3-2.1v-2.7h-1v3c0 1.7 1.3 3 3 3h1z" fill="#825012"/><circle cx="30" cy="51" fill="#539b00" r="8"/><circle cx="34" cy="47" fill="#539b00" r="8"/><circle cx="40.5" cy="44.5" fill="#539b00" r="4.5"/><path d="m26.1 53c2.2 0 4.1 1.3 4.9 3.1.3-.1.7-.1 1.1-.1 1.8 0 3.4.9 4.4 2.2-.4-1.8-2-3.2-3.9-3.2h-.1c-.5-2.3-2.5-4-4.9-4-2 0-3.7 1.2-4.5 2.9.8-.6 1.9-.9 3-.9z" fill="#fff" opacity=".2"/><path d="m34 50.4c.2.2.5.4.7.6h.3v-3c-.3 0-.7-.1-1-.2z" fill="#825012"/><path d="m34.5 43c2.4 0 4.3 1.9 4.5 4.2.5-.1 1-.2 1.5-.2 2.5 0 4.6 1.6 5.3 3.9.1-.4.2-.9.2-1.4 0-2.5-2-4.5-4.5-4.5-.5 0-1 .1-1.5.3-.1-1.8-1.6-3.3-3.5-3.3-1 0-1.9.4-2.5 1z" fill="#fff" opacity=".2"/><path d="m49.9 54.4c-1.7 1.9-4.1 3.1-6.8 3.1-.2 0-.4 0-.6 0 1 1.1 1.6 2.4 1.7 3.9 2.9-1.1 5.2-3.8 5.7-7z" opacity=".3"/><path d="m47.5 64.7c.3.7.4 1.5.5 2.3 1.7-1.1 2.9-2.9 3-5-.8 1.3-2.1 2.2-3.5 2.7z" opacity=".3"/><path d="m25.7 53c-1.6-1.4-2.7-3.5-2.7-5.9-.6 1.1-1 2.5-1 3.9 0 1.1.2 2.1.6 3.1.9-.7 2-1 3.1-1.1z" opacity=".3"/><path d="m41 54.6c0 1.7-1.3 2.1-3 2.1v1.3h1c1.7 0 3-1.3 3-3v-2c-.3 0-.7-.1-1-.2z" fill="#825012"/><circle cx="38.8" cy="65.8" fill="#539b00" r="9.3"/><path d="m35 63c1.2 0 2.3.3 3.3.8 1.2-1.1 2.9-1.8 4.7-1.8 1.6 0 3.1.5 4.2 1.4-1.1-2-3.3-3.4-5.7-3.4-1.6 0-3.1.6-4.2 1.6-.7-.4-1.5-.6-2.3-.6-2.4 0-4.4 1.7-4.9 4 1.3-1.2 3-2 4.9-2z" fill="#fff" opacity=".2"/><path d="m39.8 73c-3.8 0-7-2-8.8-5-.3 0-.6 0-.9 0-3.5 0-6.5-2-8-4.9.1 4.9 4.1 8.9 9 8.9h.9c1.7 1.9 4.1 3 6.8 3 3.6 0 6.6-2 8.2-4.9-1.9 1.8-4.5 2.9-7.2 2.9z" opacity=".3"/><path d="m11.3 95-5.3 1.9 3.8.2-2.4 1.5h5.5l3.1-.9-.5 2.7 3.3-.6 2.4-2 4.6 1.5 4.8-.7-1.5-.9 1.7-.5-6.9-1.8z" opacity=".3"/><path d="m13.4 75c3.9-.5 5.8-8 5.8-8s.8 7.4 5.8 9.4c.1.7-1.7 1.3-3.3.6-.1 1.5 3.2 3.9 5.2 4.4.1.8-1.8 2-3.6 1.4.8 1.8 2.2 3.3 5.2 4.1-1.4.8-3.6.1-5 0 0 1.2 4.4 2.3 6.6 2.2-.4 1.1-2.5 2.3-4.4 2.2 0 1.3 4.3 2.4 5.5 2.8.1 1.1-3 1.8-5.2 1.1-.1 1.3 2.2 2.5 3.3 3 0 1-7.1.7-8.3-1.4-1.3.5-2.2 3.3-4.8 3.1.3-.7 1.1-3.1-.2-3.6-1 1.4-5.4 2.5-7.2 1.7.5-.5 3-.8 2.2-2.5-2.3-.1-5.3-2.1-5.2-3 .6.4 4.3 1 4.4 0-1.7-.1-2.7-1.4-2.8-2.5.6.3 4.3.9 4.4-.3-1.3-.5-2.9-1.4-2.8-2.5 1.1.1 3.4.1 3.6-1.1-1.4-.5-2.7-2.5-2.8-3.3 1 .3 5 .1 5-.8-1.7-.1-3.2-.8-3-1.9 2.2-.2 4.7-2.5 4.7-3.6-.7.1-2.5-.2-3.1-1.5z" fill="#28896d"/><path d="m28.6 86.8s-2.8.1-5.2-2.2-3-3.9-3-3.9-.6.8-2.5 1.9c-1.9 1.2-6.1 1.1-6.1 1.1s2.6 2 6.3.8c1.8-.6 1.7-1 1.7-1s2.6 2.2 3.6 2.6c3.7 1.5 5.2.7 5.2.7z" fill="#fff" opacity=".2"/><path d="m13.2 80.2c3.3-1.8 5.4-3.2 6.1-6.1-.2 1.3 2.6 5 5.2 6.9-1.9-.2-4.4-3.4-5.5-3.3-.3 1-3.6 2.3-5.8 2.5z" fill="#fff" opacity=".2"/><path d="m14.7 75.3c3.3-1.8 3.9-4.1 4.5-6.9-.2 1.3 1.5 5.5 4.1 7.4-1.9-.2-3.6-3-4.4-3.6-.2 1-2 2.9-4.2 3.1z" fill="#fff" opacity=".2"/><path d="m9.8 87.6s4.1-.1 7.2-1.6c1-.1 2.3 2.9 3 3 .8-.2 1.2-.4 2-.9.7 2.8 5.7 5.3 8.5 6.1-5.2 0-8.8-3.4-9.4-4.4-.6.5-.8 1.9-1.9 1.9-1-1.4-2.4-3.4-2.8-4.4-1-.1-5 1.2-6.6.3z" fill="#fff" opacity=".2"/><path d="m7.3 93.2c5.8.6 7.9-2 8.9-3.1-.6 4-7.2 5.1-8.9 3.1z" fill="#fff" opacity=".2"/><path d="m22.6 92.5c1.6 2.7 2.3 4.2 6 5.5-6.1.3-6.7-4.3-6-5.5z" fill="#fff" opacity=".2"/><path d="m17.1 99.1c.3.2 3.9-5.5 1.3-6.5-1.4.8-.2 3.7-1.3 6.5z" fill="#fff" opacity=".2"/><path d="m21.2 75.7c-1.5-1.2-1.5-1.2-1.5-1.2s1.2 1.5 2 2.4c1.6.8 3.4.1 3.3-.6 0 .1-2.3.6-3.8-.6z" opacity=".3"/><path d="m23.2 96.5c-1.8-1.9-2.3-4.8-2.3-4.8s-1.1 3.8-2 5.6c-.6 1.1-1.1 2-2.5 2.4v.1c2.6.2 3.5-2.6 4.8-3.1 1.2 2.1 8.3 2.4 8.3 1.4-.1 0-4.5.3-6.3-1.6z" opacity=".3"/><path d="m26.4 89.9c-1.8-.1-4.4-3.5-4.4-3.5s-1.3.6-2 .1-1.4-1.1-1.4-1.1.7 3.2 1.7 3.1 1.6-.4 2-.9c.5 2.5 3.7 3.8 3.7 3.8 1.9.1 4-1.1 4.4-2.2-.2-.2-2.2.8-4 .7z" opacity=".3"/><path d="m15.1 81.9c.5 0 1.1 0 1.6-.1 1.4-.2 3.8-1.5 3.8-1.5l-1.8.2.7-1.6s-2.1 1.7-4 2c-1.9.2-3.3-.9-3.3-.9-.2 1 1.3 1.7 3 1.9z" opacity=".3"/><path d="m12.1 89.6c-.1 1.2-3.8.6-4.4.3 2.7 1.8 7.8-.3 7.8-.3h-2.5l2.8-1.4s-6.3.4-6.5-1.2c-.1 1.2 1.5 2.1 2.8 2.6z" opacity=".3"/><path d="m14.7 90.9s-2 .6-3.3.6-3.6-1.2-3.7-1.6c.1 1 1.1 2.3 2.7 2.4 3.2.3 4.3-1.4 4.3-1.4z" opacity=".3"/><path d="m17.2 96.8c0-1.1-.3-7.6-.3-7.6s-.1 3.9-3.6 7.2c-1.2 1.1-4.3 1.4-4.3 1.4 1.8.8 6.1-.2 7.2-1.7 1 .4.7 1.9.4 2.9.3-.5.6-1.5.6-2.2z" opacity=".3"/><path d="m66.2 89.1-9.4 3.3 6.7.4-4.1 2.8 9.6-.2 5.6-1.4-.9 4.7 5.9-1 4.2-3.6 8.2 2.6 8.5-1.1-2.7-1.7 3-.8-12.3-3.4z" opacity=".3"/><path d="m101.8 87.3c-2.1-.6-9.8-2.6-9.8-4.9 3.3.2 7.1-1.9 7.8-3.9-2.5.2-6.4-.6-9.1-1.7-.4-.5-.7-1-.8-1.5 2.3.6 5 .4 6.9-.7-1.1-.3-2.1-.6-2.9-1 1.2-1 2-2.3 2.5-3.1-2.4.7-6.9-.1-6.9-2.2 2.6.2 5.5-1.8 6.1-3.7-.9.1-2.1-.1-3.3-.3-1.7-.8-3.7-2-5.2-3.3 1.8.3 4.5 1.1 6.2-.1-2.4-.8-4-1.9-5.2-3.3 1.4-.2 2.5-.9 2.4-1.6-1.1-.4-2.1-1.1-3-1.8 2 0 3.6-1.5 3.5-2.6-2.8-.9-7.5-4.8-7.3-7.4 2.2 1.3 4.7.2 4.6-.9-6.9-3.3-8-15.7-8-15.7s-2.6 13.7-8.1 14.4c.8 2.2 3.4 2.3 4.6 1.2 0 1.7-3.4 5.7-6.5 6-.1 1.4 1 2.4 2.7 2.9-.9.7-2 1.1-3.1 1.3.1.2.2.4.3.6-1.1.1-2.1 0-2.6-.2.1 1.3 1.9 4.7 3.8 5.5-.2 2-3.4 2.1-5 1.8-.1 1.3.8 2.3 2.1 3.2.6.4 1.2.7 1.7 1-.2 2-5.3 1-6.1.5 0 .6.2 1.2.5 1.8.4 1 .9 2.2 1.7 3.2-1.6.1-4-.4-4.5-.9-.1 1.3 2.7 3.7 5.4 4.7-1.4.5-3.5.5-4.7.3-.2 2 2.6 3.5 4.9 4.4-.2 2.1-6.8 1.1-7.8.5.1 1.8 2 4.2 4.9 4.4-.2 1.7-6.9.7-7.8 0-.1 1.7 5.3 5.3 9.3 5.4 1.3 2.9-3.1 3.5-3.9 4.4 3.2 1.5 10.9-.4 12.7-2.9 2.2 1 .9 5.2.3 6.4 4.6.3 6.2-4.6 8.5-5.5 2.1 3.7 14.7 4.3 14.7 2.4-2-1-6-3.1-5.9-5.4 4 1.5 9.7.3 9.4-1.7z" fill="#28896d"/><g fill="#fff"><path d="m96.9 74.6s-5 .2-9.3-3.9c-4.3-4.2-5.4-6.9-5.4-6.9s-1 1.3-4.4 3.4-10.8 2-10.8 2 4.7 3.5 11.3 1.5c3.2-1 2.9-1.7 2.9-1.7s4.6 3.9 6.4 4.6c6.6 2.4 9.3 1 9.3 1z" opacity=".2"/><path d="m68.5 54.4c5.5-.1 8.8-2 11-3.9.4 1.4 2.5 6.6 10.6 9.6-3.4-.4-11.4-3.8-11.2-5.9-.4 1.7-6.8 4.2-10.4.2z" opacity=".2"/><path d="m75.1 41.3c5.1-3.2 4.3-4.9 5.2-8.9-.4 2.3 1.7 7.5 6.3 11-4.4-.9-5.7-3.7-6.6-5.8-.3 1.6-2 2.8-4.9 3.7z" opacity=".2"/><path d="m72.8 49.9c5.9-3.2 7.6-3.4 8.8-8.4-.4 2.3 2 5.9 6.6 9.3-3.4-.4-4.9-3.6-6.3-4.7-.3 1.7-5 3.4-9.1 3.8z" opacity=".2"/><path d="m63.5 75.9s7.3-.1 12.9-2.8c1.7-.1 4.2 5.1 5.4 5.4 1.3-.4 2.1-.7 3.5-1.6 1.2 5 10.1 9.4 15.1 10.9-9.2 0-15.7-6-16.6-7.8-1.1.9-1.3 3.4-3.4 3.4-1.7-2.4-4.3-6-4.9-7.8-1.9-.4-9.2 2-12 .3z" opacity=".2"/><path d="m59.1 85.9c10.3 1.1 14-3.6 15.8-5.5-1.1 7.2-12.7 9.1-15.8 5.5z" opacity=".2"/><path d="m86.3 84.6c2.9 4.8 4 7.5 10.7 9.7-10.8.7-11.9-7.4-10.7-9.7z" opacity=".2"/><path d="m76.6 96.3c.6.3 6.9-9.7 2.3-11.5-2.6 1.4-.4 6.6-2.3 11.5z" opacity=".2"/></g><path d="m83.9 54.9c-2.6-2.1-2.6-2.1-2.6-2.1s2.1 2.6 3.5 4.3c2.8 1.4 6 .2 5.9-1-.1-.1-4.2.9-6.8-1.2z" opacity=".3"/><path d="m87.3 91.8c-3.3-3.4-4-8.5-4-8.5s-2 6.8-3.5 9.9c-1 2-1.9 3.6-4.5 4.3 0 .1 0 .1-.1.2 4.6.3 6.2-4.6 8.5-5.5 2.1 3.7 14.7 4.3 14.7 2.4 0 .1-7.8.6-11.1-2.8z" opacity=".3"/><path d="m93 80c-3.3-.2-7.8-6.3-7.8-6.3s-2.3 1.1-3.6.2-2.5-2-2.5-2 1.2 5.7 2.9 5.4c1.8-.3 2.8-.8 3.5-1.6.8 4.4 6.5 6.8 6.5 6.7 3.3.2 7.1-1.9 7.8-3.9.1 0-3.5 1.7-6.8 1.5z" opacity=".3"/><path d="m72.7 65.8v-.6c1 0 1.9.5 2.8.4 2.5-.3 6.7-3.3 6.7-3.3l-3.2.4 1.3-2.8s-3.8 3.1-7.1 3.5c-3.4.4-6.4-1.8-6.4-1.8-.3 1.9 2.8 3.9 5.9 4.2z" opacity=".3"/><path d="m67.6 79.5c-.2 2.1-6.8 1.1-7.8.5 4.8 3.1 13.9-.5 13.9-.5l-4.4.1 5-2.4s-11.1.7-11.6-2.1c-.3 1.9 2.5 3.5 4.9 4.4z" opacity=".3"/><path d="m72.2 81.8s-3.5 1-5.9 1c-2.2 0-6.4-2.2-6.6-2.8.2 1.8 2 4.1 4.9 4.3 5.7.6 7.6-2.5 7.6-2.5z" opacity=".3"/><path d="m76.7 92.2c0-2-.5-13.5-.5-13.5s-.3 6.9-6.5 12.8c-2.1 2-7.5 2.6-7.5 2.6 3.2 1.5 10.9-.4 12.7-2.9 1.7.8 1.3 3.4.8 5.2.4-1.2 1-2.9 1-4.2z" opacity=".3"/><path d="m95.7 64.5s-3.3 1.8-6.6 1-5.7-3-5.7-3 1.3 3.7 2.8 6c1.6 2.4 7.5 4.5 10.3 2-2.4.7-6.9-.1-6.9-2.2 2.6.1 5.5-1.9 6.1-3.8z" opacity=".3"/><path d="m87.4 51.8c-2.8-.4-5.6-3.9-5.6-3.9s-2.8 1.5-.1 3.3c2.7 1.7.3 2.2 5.8 3.1 2 0 3.6-1.5 3.5-2.6.1-.1-.9.4-3.6.1z" opacity=".3"/><path d="m70.4 49.3s2 .5 6.6-2.4 3-8 3-8-1.7 2.3-3.5 2.6c-1.5.2-3.1.7-4 .6-.2 0-.3 0-.3 0 .8 2.2 3.4 2.3 4.6 1.2.1 1.8-3.3 5.7-6.4 6z" opacity=".3"/><ellipse cx="51.5" cy="110" opacity=".3" rx="7.5" ry="4"/><path d="m50 83v27c0 .6.7 1 1.5 1s1.5-.4 1.5-1v-27z" fill="#825012"/><circle cx="44.5" cy="78.5" fill="#539b00" r="6.5"/><circle cx="49" cy="70" fill="#539b00" r="9"/><path d="m52 98.4c2.6 0 3-.9 3-3.4v-8h1v10c0 1.7-1.3 3-3 3h-1z" fill="#825012"/><path d="m52 97.8c-1.7 0-3-.4-3-2.1v-9.7h-1v10c0 1.7 1.3 3 3 3h1z" fill="#825012"/><path d="m50 76.8c-1.7 0-3-.4-3-2.1v-2.7h-1v3c0 1.7 1.3 3 3 3h1z" fill="#825012"/><circle cx="56.5" cy="85.5" fill="#539b00" r="7.5"/><circle cx="61" cy="82" fill="#539b00" r="6"/><path d="m56 84.8c1.7 0 3-.4 3-2.1v-2.7h1v3c0 1.7-1.3 3-3 3h-1z" fill="#825012"/><path d="m49 69.4h1v9.6h-1z" fill="#825012"/><circle cx="58" cy="72" fill="#539b00" r="8"/><circle cx="53" cy="63" fill="#539b00" r="8"/><path d="m53.5 71c2.2 0 4.1 1.3 4.9 3.1.3-.1.7-.1 1.1-.1 1.8 0 3.4.9 4.4 2.2-.4-1.8-2-3.2-3.9-3.2h-.1c-.5-2.3-2.5-4-4.9-4-2 0-3.7 1.2-4.5 2.9.8-.6 1.9-.9 3-.9z" fill="#fff" opacity=".2"/><circle cx="44" cy="70.4" fill="#539b00" r="3.6"/><path d="m44 70.5c0-2.5 1.7-4.6 4-5.3.2-2.9 2.5-5.2 5.5-5.2 1.7 0 3.3.8 4.3 2.1-.6-2.4-2.8-4.1-5.3-4.1-2.9 0-5.3 2.2-5.5 5.1-2.3.5-4 2.5-4 4.9 0 1.1.4 2.2 1 3 0-.2 0-.3 0-.5z" fill="#fff" opacity=".2"/><circle cx="49.3" cy="85.8" fill="#539b00" r="9.3"/><circle cx="61.3" cy="79.8" fill="#539b00" r="3.3"/><path d="m67 82c0-.4 0-.8-.1-1.2-.6 3.8-3.9 6.7-7.9 6.7-.1 0-.3 0-.4 0 .7.3 1.6.5 2.4.5.7 0 1.3-.1 1.9-.3-1.4 1.4-3.3 2.3-5.4 2.3-1 0-2-.2-2.9-.6-1.6 1.6-3.9 2.6-6.3 2.6-3.5 0-6.6-2-8.1-4.8.7 4.4 4.5 7.8 9.1 7.8 2.2 0 4.3-.8 5.9-2.1.4.1.8.1 1.3.1 3.5 0 6.5-2.4 7.3-5.7 1.9-1 3.2-3 3.2-5.3z" opacity=".3"/><path d="m46.5 81c.8 0 1.5.1 2.2.4.9-1.4 2.5-2.4 4.3-2.4 1 0 1.9.3 2.7.8-.7-1.7-2.3-2.8-4.2-2.8-1.6 0-3 .8-3.8 2-.2 0-.5 0-.7 0-2.9 0-5.4 2.1-5.9 4.9 1.2-1.8 3.2-2.9 5.4-2.9z" fill="#fff" opacity=".2"/><path d="m42 81.5c-1.9-.8-3.4-2.4-3.9-4.5-.1.5-.2 1-.2 1.5 0 2.4 1.3 4.4 3.2 5.6.2-.9.5-1.8.9-2.6z" opacity=".3"/><ellipse cx="101.5" cy="99" opacity=".3" rx="7.5" ry="4"/><path d="m103 75v24c0 .6-.7 1-1.5 1s-1.5-.4-1.5-1v-24z" fill="#825012"/><circle cx="110.5" cy="73.5" fill="#539b00" r="6.5"/><circle cx="107" cy="65" fill="#539b00" r="9"/><path d="m101 87.4c-2.6 0-3-.9-3-3.4v-8h-1v10c0 1.7 1.3 3 3 3h1z" fill="#825012"/><path d="m102 88.8c1.7 0 3-.4 3-2.1v-9.7h1v10c0 1.7-1.3 3-3 3h-1z" fill="#825012"/><path d="m98 85.8c-1.7 0-2-1.3-2-2.1v-9.7h-1v10c0 1.7 1.3 3 3 3z" fill="#825012"/><circle cx="97" cy="75" fill="#539b00" r="9"/><circle cx="92" cy="71" fill="#539b00" r="6"/><path d="m97 74.8c-1.7 0-3-.4-3-2.1v-2.7h-1v3c0 1.7 1.3 3 3 3h1z" fill="#825012"/><circle cx="96" cy="63" fill="#539b00" r="8"/><circle cx="100" cy="59" fill="#539b00" r="8"/><circle cx="106.5" cy="56.5" fill="#539b00" r="4.5"/><path d="m92.1 65c2.2 0 4.1 1.3 4.9 3.1.3-.1.7-.1 1.1-.1 1.8 0 3.4.9 4.4 2.2-.4-1.8-2-3.2-3.9-3.2h-.1c-.5-2.3-2.5-4-4.9-4-2 0-3.7 1.2-4.5 2.9.8-.6 1.9-.9 3-.9z" fill="#fff" opacity=".2"/><path d="m100 62.4c.2.2.5.4.7.6h.3v-3c-.3 0-.7-.1-1-.2z" fill="#825012"/><path d="m100.5 55c2.4 0 4.3 1.9 4.5 4.2.5-.1 1-.2 1.5-.2 2.5 0 4.6 1.6 5.3 3.9.1-.4.2-.9.2-1.4 0-2.5-2-4.5-4.5-4.5-.5 0-1 .1-1.5.3-.1-1.8-1.6-3.3-3.5-3.3-1 0-1.9.4-2.5 1z" fill="#fff" opacity=".2"/><path d="m115.9 66.4c-1.7 1.9-4.1 3.1-6.8 3.1-.2 0-.4 0-.6 0 1 1.1 1.6 2.4 1.7 3.9 2.9-1.1 5.2-3.8 5.7-7z" opacity=".3"/><path d="m113.5 76.7c.3.7.4 1.5.5 2.3 1.7-1.1 2.9-2.9 3-5-.8 1.3-2.1 2.2-3.5 2.7z" opacity=".3"/><path d="m91.7 65c-1.6-1.4-2.7-3.5-2.7-5.9-.6 1.1-1 2.5-1 3.9 0 1.1.2 2.1.6 3.1.9-.7 2-1 3.1-1.1z" opacity=".3"/><path d="m107 66.6c0 1.7-1.3 2.1-3 2.1v1.3h1c1.7 0 3-1.3 3-3v-2c-.3 0-.7-.1-1-.2z" fill="#825012"/><circle cx="104.8" cy="77.8" fill="#539b00" r="9.3"/><path d="m101 75c1.2 0 2.3.3 3.3.8 1.2-1.1 2.9-1.8 4.7-1.8 1.6 0 3.1.5 4.2 1.4-1.1-2-3.3-3.4-5.7-3.4-1.6 0-3.1.6-4.2 1.6-.7-.4-1.4-.6-2.3-.6-2.4 0-4.4 1.7-4.9 4 1.3-1.2 3-2 4.9-2z" fill="#fff" opacity=".2"/><path d="m105.8 85c-3.8 0-7-2-8.8-5-.3 0-.6 0-.9 0-3.5 0-6.5-2-8-4.9.1 4.9 4.1 8.9 9 8.9h.9c1.7 1.9 4.1 3 6.8 3 3.6 0 6.6-2 8.2-4.9-1.9 1.8-4.5 2.9-7.2 2.9z" opacity=".3"/><path d="m71.4 109.2-5.7 2 4.1.2-2.5 1.7 5.8-.1 3.4-.8-.6 2.8 3.6-.6 2.6-2.2 4.9 1.6 5.2-.7-1.6-1 1.8-.5-7.5-2z" opacity=".3"/><path d="m73.7 87.7c4.2-.5 6.2-8.6 6.2-8.6s.9 8 6.2 10.1c.1.7-1.9 1.4-3.6.6-.1 1.6 3.5 4.1 5.6 4.7.1.9-1.9 2.1-3.9 1.5.9 1.9 2.3 3.6 5.6 4.4-1.5.9-3.9.1-5.3 0 0 1.3 4.7 2.5 7.1 2.4-.4 1.2-2.7 2.5-4.7 2.4 0 1.4 4.7 2.6 5.9 3 .1 1.2-3.3 1.9-5.6 1.2-.1 1.4 2.4 2.7 3.6 3.3 0 1.1-7.6.7-8.9-1.5-1.4.5-2.4 3.5-5.1 3.3.4-.8 1.1-3.3-.2-3.9-1.1 1.6-5.8 2.7-7.7 1.8.5-.5 3.2-.9 2.4-2.7-2.4-.1-5.7-2.2-5.6-3.3.6.4 4.6 1 4.7 0-1.8-.1-2.9-1.6-3-2.7.6.3 4.6 1 4.7-.3-1.4-.5-3.1-1.5-3-2.7 1.2.1 3.7.1 3.9-1.2-1.5-.5-2.9-2.7-3-3.6 1.1.3 5.4.1 5.3-.9-1.9-.1-3.4-.9-3.3-2.1 2.4-.2 5-2.7 5-3.9-.7.4-2.6.1-3.3-1.3z" fill="#28896d"/><path d="m90 100.4s-3 .1-5.6-2.4-3.3-4.1-3.3-4.1-.6.8-2.7 2.1-6.5 1.2-6.5 1.2 2.8 2.1 6.8.9c2-.6 1.8-1 1.8-1s2.8 2.4 3.8 2.8c4.1 1.4 5.7.5 5.7.5z" fill="#fff" opacity=".2"/><path d="m73.4 93.3c3.6-1.9 5.8-3.5 6.5-6.5-.2 1.4 2.8 5.3 5.6 7.4-2.1-.2-4.7-3.7-5.9-3.6-.2 1.1-3.7 2.5-6.2 2.7z" fill="#fff" opacity=".2"/><path d="m75.1 88c3.6-1.9 4.2-4.4 4.9-7.5-.2 1.4 1.6 5.9 4.4 8-2.1-.2-3.9-3.2-4.7-3.9-.3 1.1-2.2 3.2-4.6 3.4z" fill="#fff" opacity=".2"/><path d="m69.8 101.2s4.4-.1 7.8-1.7c1-.1 2.5 3.1 3.3 3.3.8-.2 1.3-.4 2.1-1 .7 3.1 6.1 5.7 9.1 6.6-5.5 0-9.5-3.6-10.1-4.7-.7.5-.8 2.1-2.1 2.1-1-1.5-2.6-3.6-3-4.7-1-.3-5.4 1.1-7.1.1z" fill="#fff" opacity=".2"/><path d="m67.1 107.3c6.2.7 8.5-2.2 9.5-3.3-.6 4.3-7.6 5.5-9.5 3.3z" fill="#fff" opacity=".2"/><path d="m83.6 106.5c1.8 2.9 2.4 4.6 6.5 5.9-6.6.4-7.3-4.6-6.5-5.9z" fill="#fff" opacity=".2"/><path d="m77.7 113.6c.4.2 4.2-5.9 1.4-7-1.6.8-.2 4-1.4 7z" fill="#fff" opacity=".2"/><path d="m82.1 88.5c-1.6-1.3-1.6-1.3-1.6-1.3s1.3 1.6 2.1 2.6c1.7.8 3.7.1 3.6-.6 0-.1-2.5.6-4.1-.7z" opacity=".3"/><path d="m84.2 110.8c-2-2-2.4-5.1-2.4-5.1s-1.2 4.1-2.1 6c-.6 1.2-1.2 2.2-2.7 2.6v.1c2.8.2 3.7-2.8 5.1-3.3 1.3 2.2 8.9 2.6 8.9 1.5-.1 0-4.8.3-6.8-1.8z" opacity=".3"/><path d="m87.6 103.7c-2-.1-4.7-3.8-4.7-3.8s-1.4.7-2.2.1-1.5-1.2-1.5-1.2.7 3.5 1.8 3.3 1.7-.5 2.1-1c.5 2.6 3.9 4.1 3.9 4.1 2 .1 4.3-1.1 4.7-2.4.1 0-2.1 1-4.1.9z" opacity=".3"/><path d="m75.5 95.1c.6 0 1.2 0 1.7-.1 1.5-.2 4.1-1.6 4.1-1.6l-2 .2.8-1.7s-2.3 1.9-4.3 2.1c-2 .3-3.5-1-3.5-1-.2 1.2 1.4 1.9 3.2 2.1z" opacity=".3"/><path d="m72.2 103.4c-.1 1.3-4.1.6-4.7.3 2.9 1.9 8.4-.3 8.4-.3l-2.6.1 3-1.5s-6.7.4-7-1.3c-.2 1.2 1.5 2.2 2.9 2.7z" opacity=".3"/><path d="m75.1 104.8s-2.1.6-3.6.6c-1.4 0-3.8-1.3-4-1.7.1 1.1 1.2 2.5 3 2.6 3.4.3 4.6-1.5 4.6-1.5z" opacity=".3"/><path d="m77.7 111.1c0-1.2-.3-8.2-.3-8.2s-.2 4.2-3.9 7.8c-1.3 1.2-4.6 1.6-4.6 1.6 1.9.9 6.6-.2 7.7-1.8 1 .5.8 2.1.5 3.2.3-.8.6-1.9.6-2.6z" opacity=".3"/><path d="m60.5 118.4-3.5 1.3 2.5.1-1.5 1h3.5l2.1-.5-.3 1.7 2.1-.4 1.6-1.3 3 1 3.2-.5-1-.6 1.1-.3-4.5-1.2z" opacity=".3"/><path d="m61.9 105.3c2.6-.3 3.8-5.3 3.8-5.3s.5 4.9 3.8 6.2c.1.5-1.1.9-2.2.4-.1 1 2.1 2.5 3.4 2.9 0 .5-1.2 1.3-2.4.9.5 1.2 1.4 2.2 3.4 2.7-.9.5-2.4 0-3.3 0 0 .8 2.9 1.5 4.4 1.5-.3.8-1.7 1.5-2.9 1.5 0 .9 2.9 1.6 3.6 1.8.1.7-2 1.2-3.4.7 0 .9 1.5 1.6 2.2 2 0 .7-4.7.5-5.4-.9-.9.3-1.4 2.2-3.1 2 .2-.5.7-2-.1-2.4-.7 1-3.5 1.6-4.7 1.1.3-.3 2-.5 1.5-1.6-1.5 0-3.5-1.4-3.4-2 .4.3 2.8.6 2.9 0-1.1-.1-1.8-1-1.8-1.6.4.2 2.8.6 2.9-.2-.9-.3-1.9-.9-1.8-1.6.7.1 2.3 0 2.4-.7-.9-.3-1.8-1.7-1.8-2.2.7.2 3.3 0 3.3-.5-1.1-.1-2.1-.5-2-1.3 1.5-.1 3.1-1.7 3.1-2.4-.8 0-2-.2-2.4-1z" fill="#28896d"/><path d="m71.9 113.1s-1.9.1-3.4-1.5c-1.6-1.5-2-2.5-2-2.5s-.4.5-1.6 1.3c-1.3.8-4 .7-4 .7s1.7 1.3 4.2.5c1.2-.4 1.1-.6 1.1-.6s1.7 1.5 2.4 1.7c2.3.9 3.3.4 3.3.4z" fill="#fff" opacity=".2"/><path d="m61.7 108.7c2.2-1.2 3.5-2.1 4-4-.1.9 1.7 3.3 3.4 4.5-1.3-.1-2.9-2.3-3.6-2.2-.1.7-2.3 1.6-3.8 1.7z" fill="#fff" opacity=".2"/><path d="m62.7 105.5c2.2-1.2 2.5-2.7 3-4.6-.1.9 1 3.6 2.7 4.9-1.3-.1-2.4-1.9-2.9-2.4-.1.7-1.3 1.9-2.8 2.1z" fill="#fff" opacity=".2"/><path d="m59.5 113.6s2.7 0 4.8-1c.6 0 1.5 1.9 2 2 .5-.1.8-.3 1.3-.6.4 1.9 3.7 3.5 5.6 4-3.4 0-5.8-2.2-6.2-2.9-.4.3-.5 1.3-1.3 1.3-.6-.9-1.6-2.2-1.8-2.9-.7-.2-3.4.7-4.4.1z" fill="#fff" opacity=".2"/><path d="m57.9 117.3c3.8.4 5.2-1.3 5.8-2-.4 2.6-4.7 3.3-5.8 2z" fill="#fff" opacity=".2"/><path d="m67.9 116.8c1.1 1.8 1.5 2.8 4 3.6-4 .2-4.4-2.8-4-3.6z" fill="#fff" opacity=".2"/><path d="m64.3 121.1c.2.1 2.6-3.6.8-4.3-.9.6 0 2.5-.8 4.3z" fill="#fff" opacity=".2"/><path d="m67 105.8c-1-.8-1-.8-1-.8s.8 1 1.3 1.6c1 .5 2.2.1 2.2-.4 0 0-1.5.3-2.5-.4z" opacity=".3"/><path d="m68.3 119.5c-1.2-1.2-1.5-3.1-1.5-3.1s-.7 2.5-1.3 3.7c-.4.7-.7 1.3-1.7 1.6v.1c1.7.1 2.3-1.7 3.1-2 .8 1.4 5.4 1.6 5.4.9.1-.2-2.8 0-4-1.2z" opacity=".3"/><path d="m70.4 115.1c-1.2-.1-2.9-2.3-2.9-2.3s-.8.4-1.3.1-.9-.7-.9-.7.4 2.1 1.1 2 1-.3 1.3-.6c.3 1.6 2.4 2.5 2.4 2.5 1.2.1 2.6-.7 2.9-1.5 0-.1-1.4.5-2.6.5z" opacity=".3"/><path d="m63 109.8c.4 0 .7 0 1.1-.1.9-.1 2.5-1 2.5-1l-1.2.1.5-1.1s-1.4 1.1-2.6 1.3-2.2-.6-2.2-.6c-.2.9.8 1.3 1.9 1.4z" opacity=".3"/><path d="m61 114.9c-.1.8-2.5.4-2.9.2 1.8 1.2 5.2-.2 5.2-.2h-1.6l1.9-.9s-4.1.2-4.3-.8c-.2.8.8 1.4 1.7 1.7z" opacity=".3"/><path d="m62.7 115.8s-1.3.4-2.2.4c-.8 0-2.4-.8-2.4-1 .1.7.7 1.5 1.8 1.6 2.1.1 2.8-1 2.8-1z" opacity=".3"/><path d="m64.4 119.6c0-.7-.2-5-.2-5s-.1 2.5-2.4 4.8c-.8.7-2.8 1-2.8 1 1.2.5 4-.1 4.7-1.1.6.3.5 1.3.3 1.9.2-.5.4-1.1.4-1.6z" opacity=".3"/></svg>